<?xml version="1.0" encoding="UTF-8"?>
<svg width="92px" height="94px" viewBox="0 0 92 94" version="1.1" xmlns="http://www.w3.org/2000/svg" xmlns:xlink="http://www.w3.org/1999/xlink">
    <!-- Generator: Sketch 51.3 (57544) - http://www.bohemiancoding.com/sketch -->
    <title>noun_Email_1002247</title>
    <desc>Created with Sketch.</desc>
    <defs></defs>
    <g id="Page-1" stroke="none" stroke-width="1" fill="none" fill-rule="evenodd">
        <g id="noun_Email_1002247" fill="#000000" fill-rule="nonzero">
            <path d="M8.82,93.74 L83.18,93.74 C88.0527686,93.7344816 92.0000031,89.7827718 92,84.91 L92,37.69 C91.9992442,36.9532988 91.6735958,36.2544354 91.11,35.78 L78.8,25.38 L78.8,7.25 C78.8,3.38400675 75.6659932,0.25 71.8,0.25 L20.69,0.25 C16.8240068,0.25 13.69,3.38400675 13.69,7.25 L13.69,25 L0.89,35.78 C0.326404211,36.2544354 0.000755806272,36.9532988 0,37.69 L0,84.91 C-3.12481857e-06,89.7827718 3.94723136,93.7344816 8.82,93.74 Z M83.17,88.74 L8.82,88.74 C6.7086557,88.7344873 4.9999928,87.0213515 5,84.91 L5,42.46 L33.5,62.62 L13.27,78.1 C12.1654305,78.9284271 11.9415729,80.4954305 12.77,81.6 C13.5984271,82.7045695 15.1654305,82.9284271 16.27,82.1 L37.78,65.64 L44.78,70.64 C45.6457483,71.2532108 46.8042517,71.2532108 47.67,70.64 L54.67,65.64 L76.19,82.07 C77.2945695,82.8984271 78.8615729,82.6745695 79.69,81.57 C80.5184271,80.4654305 80.2945695,78.8984271 79.19,78.07 L59,62.62 L87,42.82 L87,84.92 C86.9945047,87.0274473 85.2874473,88.7345047 83.18,88.74 L83.17,88.74 Z M85.6,37.68 L78.8,42.49 L78.8,31.92 L85.6,37.68 Z M20.69,5.26 L71.81,5.26 C72.9145695,5.26 73.81,6.1554305 73.81,7.26 L73.81,46 L46.25,65.51 L18.7,46 L18.7,7.25 C18.7054703,6.15322721 19.5932272,5.26547029 20.69,5.26 Z M13.69,42.49 L6.61,37.49 L13.69,31.49 L13.69,42.49 Z M46,52.67 L46.64,52.67 C48.0207119,52.67 49.14,51.5507119 49.14,50.17 C49.14,48.7892881 48.0207119,47.67 46.64,47.67 L46,47.67 C37.1965811,47.67 30.06,40.5334189 30.06,31.73 C30.06,22.9265811 37.1965811,15.79 46,15.79 C54.8034189,15.79 61.94,22.9265811 61.94,31.73 L61.94,36 C61.8516719,37.4733863 60.6310315,38.6230419 59.155,38.6230419 C57.6789685,38.6230419 56.4583281,37.4733863 56.37,36 L56.37,31.73 C56.4015767,26.8816802 53.0788072,22.6547593 48.3601384,21.5405928 C43.6414696,20.4264263 38.7789368,22.7206432 36.6385262,27.0710277 C34.4981157,31.4214121 35.6477566,36.6736481 39.4098483,39.7320575 C43.17194,42.7904669 48.5482622,42.8435419 52.37,39.86 C54.1041032,42.9607358 57.718431,44.4928909 61.1526559,43.5830688 C64.5868807,42.6732467 66.9685474,39.5525852 66.94,36 L66.94,31.73 C66.94,20.1651573 57.5648427,10.79 46,10.79 C34.4351573,10.79 25.06,20.1651573 25.06,31.73 C25.06,43.2948427 34.4351573,52.67 46,52.67 Z M46,37.1 C43.8280377,37.1 41.8699409,35.7916415 41.0387669,33.78501 C40.2075929,31.7783786 40.6670273,29.4686458 42.2028366,27.9328366 C43.7386458,26.3970273 46.0483786,25.9375929 48.05501,26.7687669 C50.0616415,27.5999409 51.37,29.5580377 51.37,31.73 C51.37,34.6957691 48.9657691,37.1 46,37.1 Z" id="Shape"></path>
        </g>
    </g>
</svg>