<?xml version="1.0" encoding="UTF-8"?>
<svg width="90px" height="96px" viewBox="0 0 90 96" version="1.1" xmlns="http://www.w3.org/2000/svg" xmlns:xlink="http://www.w3.org/1999/xlink">
    <!-- Generator: Sketch 51.3 (57544) - http://www.bohemiancoding.com/sketch -->
    <title>noun_Telephone_1995614</title>
    <desc>Created with Sketch.</desc>
    <defs></defs>
    <g id="Page-1" stroke="none" stroke-width="1" fill="none" fill-rule="evenodd">
        <g id="noun_Telephone_1995614" fill="#000000" fill-rule="nonzero">
            <g id="Group">
                <path d="M45,25.1 C20.9,25.1 0.6,35.7 0.6,48.3 C0.6,50.4 1.2,54.2 2.5,57.5 C3.7,60.5 6.6,62.5 9.8,62.5 C10.1,62.5 10.4,62.5 10.7,62.4 L11.4,62.3 C9.1,67.3 7.8,72.8 7.8,78.4 L7.8,87.3 C7.8,91.8 11.5,95.5 16,95.5 L74,95.5 C78.5,95.5 82.2,91.8 82.2,87.3 L82.2,78.4 C82.2,72.9 81,67.3 78.6,62.3 L79.3,62.4 C82.8,62.8 86.2,60.8 87.5,57.5 C88.8,54.2 89.4,50.4 89.4,48.3 C89.4,35.7 69.1,25.1 45,25.1 Z M76.6,87.3 C76.6,88.7 75.4,89.9 74,89.9 L16,89.9 C14.6,89.9 13.4,88.7 13.4,87.3 L13.4,78.4 C13.4,72.9 14.8,67.5 17.4,62.7 L18.1,61.5 L23.7,60.8 C27.9,60.3 30.9,56.6 30.6,52.4 C30.4,49.4 30.3,47.8 30.3,47.4 C30.3,47.2 30.7,45 45,45 C59.3,45 59.7,47.2 59.7,47.4 C59.7,47.7 59.6,49.4 59.4,52.4 C59.1,56.6 62.1,60.3 66.3,60.8 L71.9,61.5 L72.6,62.7 C75.2,67.5 76.6,72.9 76.6,78.4 L76.6,87.3 Z M82.3,55.4 C81.9,56.3 81,56.9 80,56.8 L67,55.3 C65.8,55.2 65,54.1 65.1,52.9 C65.2,51.9 65.4,48.5 65.4,47.5 C65.4,39.5 52.7,39.5 45.1,39.5 C37.5,39.5 24.8,39.5 24.8,47.5 C24.8,48.5 25.1,51.9 25.1,52.9 C25.2,54.1 24.3,55.1 23.2,55.3 L10.2,56.8 C9.2,56.9 8.3,56.3 7.9,55.4 C6.9,53 6.4,49.9 6.4,48.3 C6.4,44.4 10.4,40 17,36.7 C24.6,32.9 34.6,30.7 45.2,30.7 C55.8,30.7 65.7,32.8 73.4,36.7 C80.1,40.1 84,44.4 84,48.3 C83.8,49.9 83.2,53 82.3,55.4 Z" id="Shape"></path>
                <path d="M45,56.2 C37.3,56.2 30.9,62.5 30.9,70.3 C30.9,78.1 37.3,84.3 45,84.3 C52.7,84.3 59.1,78 59.1,70.2 C59.1,62.4 52.7,56.2 45,56.2 Z M45,78.7 C40.3,78.7 36.6,74.9 36.6,70.3 C36.6,65.7 40.4,61.9 45,61.9 C49.7,61.9 53.4,65.7 53.4,70.3 C53.4,74.9 49.7,78.7 45,78.7 Z" id="Shape"></path>
                <path d="M45,15.9 C46.7,15.9 48.2,14.5 48.2,12.7 L48.2,3.7 C48.2,2 46.8,0.5 45,0.5 C43.2,0.5 41.8,1.9 41.8,3.7 L41.8,12.8 C41.8,14.5 43.3,15.9 45,15.9 Z" id="Shape"></path>
                <path d="M28.6,17.8 C29.2,18.7 30.2,19.3 31.3,19.3 C31.9,19.3 32.5,19.1 33,18.8 C34.5,17.9 34.9,15.9 34,14.5 L29,6.6 C28.1,5.1 26.1,4.7 24.7,5.6 C23.2,6.5 22.8,8.5 23.7,9.9 L28.6,17.8 Z" id="Shape"></path>
                <path d="M57,18.8 C57.5,19.1 58.1,19.3 58.7,19.3 C59.7,19.3 60.8,18.8 61.4,17.8 L66.4,9.9 C67.3,8.4 66.9,6.5 65.4,5.6 C63.9,4.7 62,5.1 61.1,6.6 L56.1,14.5 C55.1,15.9 55.5,17.8 57,18.8 Z" id="Shape"></path>
            </g>
        </g>
    </g>
</svg>