<?xml version="1.0" encoding="UTF-8"?>
<svg width="98px" height="98px" viewBox="0 0 98 98" version="1.1" xmlns="http://www.w3.org/2000/svg" xmlns:xlink="http://www.w3.org/1999/xlink">
    <!-- Generator: Sketch 51.3 (57544) - http://www.bohemiancoding.com/sketch -->
    <title>noun_contact_547547</title>
    <desc>Created with Sketch.</desc>
    <defs></defs>
    <g id="Page-1" stroke="none" stroke-width="1" fill="none" fill-rule="evenodd">
        <g id="noun_contact_547547" fill="#000000" fill-rule="nonzero">
            <path d="M76.5,0.7 L21.5,0.7 C10,0.7 0.7,10 0.7,21.5 L0.7,76.4 C0.7,88 10,97.3 21.5,97.3 L76.4,97.3 C87.9,97.3 97.2,88 97.2,76.5 L97.2,21.5 C97.3,10 88,0.7 76.5,0.7 Z M78.8,72.8 C77.3,74.4 75.5,75.9 74.1,77.6 C71.9,80 69.2,80.9 66.1,80.7 C61.7,80.4 57.6,78.9 53.5,77 C44.6,72.7 36.9,66.7 30.5,59 C25.8,53.3 21.9,47.3 19.3,40.3 C18.1,36.9 17.2,33.5 17.5,30 C17.7,27.8 18.6,25.9 20.2,24.3 C21.9,22.6 23.6,20.9 25.4,19.1 C27.7,16.9 30.6,16.9 32.8,19.1 C34.2,20.4 35.6,21.9 37,23.3 C38.3,24.6 39.7,26 41.1,27.4 C43.5,29.8 43.5,32.6 41.1,35 C39.4,36.7 37.7,38.4 35.9,40.1 C35.4,40.6 35.4,40.9 35.6,41.4 C36.7,44.2 38.4,46.6 40.2,48.9 C43.9,53.5 48.2,57.5 53.1,60.7 C54.2,61.4 55.4,61.8 56.5,62.5 C57.1,62.8 57.5,62.7 57.9,62.2 C59.6,60.5 61.3,58.8 63.1,57 C65.4,54.7 68.3,54.7 70.5,57 C73.3,59.8 76.1,62.6 78.8,65.3 C81.1,67.5 81.1,70.4 78.8,72.8 Z" id="Shape"></path>
        </g>
    </g>
</svg>